# xmcd
#
# Track frame offsets:
#	155
#	9755
#	19291
#	33905
#	45249
#	57386
#	69839
#	83855
#	96671
#	107026
#	116792
#	128485
#	138439
#	149472
#	161173
#	174067
#	182888
#	195145
#	208309
#	221652
#	230960
#	242448
#	255917
#	267244
#	277575
#	287833
#
# Disc length: 4023 seconds
#
# Revision: 1
# Processed by: cddbd v1.5PL3 Copyright (c) Steve Scherf et al.
# Submitted via: audiograbber 1.82.02
#
DISCID=6d0fb51a
DTITLE=Various Artist - Dynamite Group Sounds Vol. 36
DYEAR=1900
DGENRE=
TTITLE0=Strands - How Will I Know
TTITLE1=Don Juans - Girl Of My Dreams
TTITLE2=Marylanders - Make Me Thrill Again
TTITLE3=Mar-Vellos - Boyee Yoing
TTITLE4=Cashmeres - There's A Rumor
TTITLE5=Uniques (Nicky Addeo and the) - Over The Rainbow
TTITLE6=Dozier Boys - Hey Jack
TTITLE7=Starglows - Let's Be Lovers
TTITLE8=Jo Ann Campbell and Group - Donnie
TTITLE9=Lollypops - Believe In Me
TTITLE10=Jubilites - Why Oh Why
TTITLE11=C-Notes - Last Saturday Night
TTITLE12=Magic-Tones - Cool Cool Baby
TTITLE13=Gloria Brown and Group - Happy Birthday
TTITLE14=Universals - Think
TTITLE15=Suburbans - Mississippi Mud
TTITLE16=Crystalights - The Bells
TTITLE17=Los Zafiros - Dichoso Mar
TTITLE18=Vistones - It's Nice
TTITLE19=Fabuleers - I Had A Feeling This Morning
TTITLE20=Buddies (Billie Bunn and His) - That's When Your Heartaches Begin
TTITLE21=Robins - (Now And Then) There's A Fool Such As I
TTITLE22=Champions - Mexico Bound
TTITLE23=Tremaines - Moon Shining Bright
TTITLE24=Magic-Tones - How Can You Treat Me This Way
TTITLE25=Shakers (Pepper and the) - Need Your Love
EXTD=
EXTT0=
EXTT1=
EXTT2=
EXTT3=
EXTT4=
EXTT5=
EXTT6=
EXTT7=
EXTT8=
EXTT9=
EXTT10=
EXTT11=
EXTT12=
EXTT13=
EXTT14=
EXTT15=
EXTT16=
EXTT17=
EXTT18=
EXTT19=
EXTT20=
EXTT21=
EXTT22=
EXTT23=
EXTT24=
EXTT25=
PLAYORDER=
